HIERARCHY
ROOT Hips
{
	OFFSET 0.000000 0.000000 0.000000
	CHANNELS 6 Xposition Yposition Zposition Zrotation Yrotation Xrotation 
	JOINT LHipJoint
	{
		OFFSET 0.000000 0.000000 0.000000
		CHANNELS 3 Zrotation Yrotation Xrotation
		JOINT LeftUpLeg
		{
			OFFSET 1.363060 -1.794630 0.839290
			CHANNELS 3 Zrotation Yrotation Xrotation
			JOINT LeftLeg
			{
				OFFSET 2.448110 -6.726130 0.000000
				CHANNELS 3 Zrotation Yrotation Xrotation
				JOINT LeftFoot
				{
					OFFSET 2.562200 -7.039590 0.000000
					CHANNELS 3 Zrotation Yrotation Xrotation
					JOINT LeftToeBase
					{
						OFFSET 0.157640 -0.433110 2.322550
						CHANNELS 3 Zrotation Yrotation Xrotation
						End Site
						{
							OFFSET 0.000000 0.000000 0.000000
						}
					}
				}
			}
		}
	}
	JOINT RHipJoint
	{
		OFFSET 0.000000 0.000000 0.000000
		CHANNELS 3 Zrotation Yrotation Xrotation
		JOINT RightUpLeg
		{
			OFFSET -1.305520 -1.794630 0.839290
			CHANNELS 3 Zrotation Yrotation Xrotation
			JOINT RightLeg
			{
				OFFSET -2.542530 -6.985550 0.000000
				CHANNELS 3 Zrotation Yrotation Xrotation
				JOINT RightFoot
				{
					OFFSET -2.568260 -7.056230 0.000000
					CHANNELS 3 Zrotation Yrotation Xrotation
					JOINT RightToeBase
					{
						OFFSET -0.164730 -0.452590 2.363150
						CHANNELS 3 Zrotation Yrotation Xrotation
						End Site
						{
							OFFSET 0.000000 0.000000 0.000000
						}
					}
				}
			}
		}
	}
	JOINT LowerBack
	{
		OFFSET 0.000000 0.000000 0.000000
		CHANNELS 3 Zrotation Yrotation Xrotation
		JOINT Spine
		{
			OFFSET 0.028270 2.035590 -0.193380
			CHANNELS 3 Zrotation Yrotation Xrotation
			JOINT Spine1
			{
				OFFSET 0.056720 2.048850 -0.042750
				CHANNELS 3 Zrotation Yrotation Xrotation
				JOINT Neck
				{
					OFFSET 0.000000 0.000000 0.000000
					CHANNELS 3 Zrotation Yrotation Xrotation
					JOINT Neck1
					{
						OFFSET -0.054170 1.746240 0.172020
						CHANNELS 3 Zrotation Yrotation Xrotation
						JOINT Head
						{
							OFFSET 0.104070 1.761360 -0.123970
							CHANNELS 3 Zrotation Yrotation Xrotation
							End Site
							{
								OFFSET 0.000000 0.000000 0.000000
							}
						}
					}
				}
				JOINT LeftShoulder
				{
					OFFSET 0.000000 0.000000 0.000000
					CHANNELS 3 Zrotation Yrotation Xrotation
					JOINT LeftArm
					{
						OFFSET 3.362410 1.200890 -0.311210
						CHANNELS 3 Zrotation Yrotation Xrotation
						JOINT LeftForeArm
						{
							OFFSET 4.983000 -0.000000 -0.000000
							CHANNELS 3 Zrotation Yrotation Xrotation
							JOINT LeftHand
							{
								OFFSET 3.483560 -0.000000 -0.000000
								CHANNELS 3 Zrotation Yrotation Xrotation
								JOINT LeftFingerBase
								{
									OFFSET 0.000000 0.000000 0.000000
									CHANNELS 3 Zrotation Yrotation Xrotation
									JOINT LeftHandIndex1
									{
										OFFSET 0.715260 -0.000000 -0.000000
										CHANNELS 3 Zrotation Yrotation Xrotation
										End Site
										{
											OFFSET 0.000000 0.000000 0.000000
										}
									}
								}
								JOINT LThumb
								{
									OFFSET 0.000000 0.000000 0.000000
									CHANNELS 3 Zrotation Yrotation Xrotation
									End Site
									{
										OFFSET 0.000000 0.000000 0.000000
									}
								}
							}
						}
					}
				}
				JOINT RightShoulder
				{
					OFFSET 0.000000 0.000000 0.000000
					CHANNELS 3 Zrotation Yrotation Xrotation
					JOINT RightArm
					{
						OFFSET -3.136600 1.374050 -0.404650
						CHANNELS 3 Zrotation Yrotation Xrotation
						JOINT RightForeArm
						{
							OFFSET -5.241900 -0.000000 -0.000000
							CHANNELS 3 Zrotation Yrotation Xrotation
							JOINT RightHand
							{
								OFFSET -3.444170 -0.000000 -0.000000
								CHANNELS 3 Zrotation Yrotation Xrotation
								JOINT RightFingerBase
								{
									OFFSET 0.000000 0.000000 0.000000
									CHANNELS 3 Zrotation Yrotation Xrotation
									JOINT RightHandIndex1
									{
										OFFSET -0.622530 -0.000000 -0.000000
										CHANNELS 3 Zrotation Yrotation Xrotation
										End Site
										{
											OFFSET 0.000000 0.000000 0.000000
										}
									}
								}
								JOINT RThumb
								{
									OFFSET 0.000000 0.000000 0.000000
									CHANNELS 3 Zrotation Yrotation Xrotation
									End Site
									{
										OFFSET 0.000000 0.000000 0.000000
									}
								}
							}
						}
					}
				}
			}
		}
	}
}
MOTION
Frames: 10
Frame Time: 0.008333
-11.115320 17.886442 4.711307 -26.554234 83.445466 -8.019166 -0.865360 -1.022573 -0.306873 -4.980692 -3.533060 -31.564252 0.344207 8.438271 23.791320 0.528825 -1.660381 2.471144 0.547900 -4.742200 -13.174700 5.314115 1.250765 0.570086 7.377389 5.927507 -34.700742 -2.599331 -9.553163 28.865496 0.552324 -4.109692 -1.585530 -0.154500 2.533000 -6.981100 -2.001346 1.344031 4.738618 4.219424 1.561646 9.311448 4.998120 0.847192 0.541802 0.365330 -2.528211 -11.884218 -0.925979 -0.145972 34.410656 -2.085300 1.009300 17.454000 0.290381 5.553471 -2.049088 -102.617893 -20.483351 81.949225 25.219626 -38.833548 -7.926389 -0.478637 1.447744 -49.934495 33.233151 64.243139 29.669100 -7.125000 0.000000 0.000000 171.161900 7.650600 7.677100 0.492964 -4.252792 -1.711677 94.631929 16.662077 57.356468 -26.814842 40.769543 -9.607509 -0.316733 -0.412298 -51.429492 -28.715638 -6.883928 3.689100 7.125000 0.000000 0.000000 -1.217000 -37.804100 -0.215600 
-11.114319 17.881241 4.712507 -26.608423 83.420346 -8.078797 -0.865920 -1.025211 -0.309953 -5.068734 -3.368624 -31.650420 0.329898 8.415677 23.715364 0.480095 -1.372356 2.499513 0.722700 -5.432300 -15.145700 5.310229 1.250162 0.569950 7.404347 5.923660 -34.763259 -2.621514 -9.585815 28.979935 0.550444 -4.098625 -1.607643 -0.159400 2.572700 -7.091200 -2.048245 1.343277 4.737311 4.265265 1.559263 9.318571 5.039637 0.847452 0.549189 0.339658 -2.520000 -11.877134 -0.936364 -0.123605 34.408071 -2.082400 1.012800 17.453600 0.288359 5.553762 -2.051173 -102.619495 -20.515514 81.984593 25.256928 -38.869518 -7.948887 -0.483921 1.445124 -50.071095 33.183823 64.312929 29.639000 -7.125000 0.000000 0.000000 171.126300 7.702300 7.699700 0.489668 -4.252795 -1.710043 94.676794 16.689848 57.281652 -26.752854 40.714370 -9.570446 -0.315995 -0.410665 -51.213127 -28.600663 -6.893187 3.675500 7.125000 0.000000 0.000000 -1.119600 -37.804500 -0.198400 
-11.113219 17.877940 4.712307 -26.898458 83.390554 -8.347910 -0.858077 -1.034827 -0.316892 -5.161716 -3.146480 -31.802563 0.332234 8.420330 23.729288 0.483247 -1.392569 2.629146 0.850700 -5.882500 -16.443900 5.307248 1.245266 0.571766 7.439514 5.966878 -34.792106 -2.628779 -9.594867 29.015681 0.553702 -4.118816 -1.657995 -0.149100 2.488600 -6.857900 -2.003380 1.362034 4.703913 4.287714 1.585626 9.326327 5.020288 0.861048 0.573461 0.327892 -2.548586 -11.864759 -0.938884 -0.166468 34.385330 -2.088900 0.994000 17.437000 0.287029 5.552358 -2.052763 -102.624906 -20.536992 82.076760 25.297297 -38.909883 -7.974973 -0.488604 1.445490 -50.238970 33.514267 64.316291 29.954700 -7.125000 0.000000 0.000000 171.205700 7.781600 7.615200 0.487614 -4.252849 -1.710305 94.659535 16.717713 57.261127 -26.740916 40.702085 -9.562046 -0.317399 -0.409309 -51.139825 -28.661972 -6.874252 3.675800 7.125000 0.000000 0.000000 -1.173000 -37.789000 -0.208300 
-11.112619 17.877139 4.710307 -26.737584 83.396203 -8.177872 -0.855211 -1.034347 -0.316925 -5.202425 -3.125754 -31.831053 0.332736 8.423949 23.740569 0.499149 -1.488827 2.665370 0.835200 -5.829900 -16.291600 5.305818 1.250454 0.571815 7.430141 5.884502 -34.840276 -2.634484 -9.603149 29.047864 0.535889 -4.009483 -1.679362 -0.157400 2.556500 -7.046400 -1.925257 1.395859 4.705424 4.219509 1.632796 9.323609 4.953004 0.882610 0.565588 0.348031 -2.595202 -11.904478 -0.889432 -0.246422 34.427673 -2.081000 0.974900 17.463500 0.289221 5.557550 -2.052558 -102.590442 -20.521693 82.184408 25.286599 -38.902364 -7.971346 -0.483492 1.445851 -50.161752 33.293525 64.205437 29.718400 -7.125000 0.000000 0.000000 171.190600 7.630100 7.655200 0.490981 -4.249017 -1.709718 94.644709 16.719540 57.196149 -26.750457 40.710669 -9.568011 -0.317930 -0.408870 -51.151991 -28.680866 -6.873020 3.678500 7.125000 0.000000 0.000000 -1.189200 -37.790000 -0.211100 
-11.112719 17.876239 4.709106 -26.555733 83.415609 -7.998189 -0.853527 -1.033341 -0.318140 -5.233852 -3.153412 -31.846411 0.336774 8.437010 23.774310 0.496672 -1.478722 2.613827 0.852000 -5.886900 -16.456700 5.305309 1.255659 0.572360 7.419945 5.796795 -34.871463 -2.636145 -9.605378 29.057106 0.523324 -3.931523 -1.659447 -0.170700 2.661500 -7.337800 -1.880381 1.421137 4.728607 4.157710 1.667861 9.319997 4.907313 0.898393 0.546114 0.385677 -2.624713 -11.970595 -0.868627 -0.293517 34.498240 -2.084100 0.968100 17.515000 0.291277 5.562502 -2.052789 -102.544139 -20.531702 82.296848 25.263907 -38.882437 -7.958945 -0.478808 1.444334 -50.027371 32.774328 64.162252 29.214400 -7.125000 0.000000 0.000000 171.077600 7.471100 7.784000 0.493940 -4.246646 -1.708841 94.655249 16.745853 57.134243 -26.753951 40.715453 -9.570900 -0.317849 -0.408826 -51.212781 -28.662490 -6.858334 3.668200 7.125000 0.000000 0.000000 -1.174000 -37.772700 -0.208900 
-11.113319 17.875939 4.710207 -27.193094 83.428220 -8.642896 -0.855940 -1.044354 -0.323748 -5.157220 -3.144919 -31.847603 0.343913 8.441517 23.794334 0.503694 -1.516663 2.635643 0.798800 -5.704700 -15.929900 5.297116 1.242225 0.575782 7.496982 5.841322 -34.850010 -2.636495 -9.609069 29.061724 0.532858 -3.992255 -1.651765 -0.158200 2.562600 -7.063200 -1.766575 1.440540 4.770061 4.137855 1.699604 9.319863 4.830616 0.913455 0.523425 0.476992 -2.634988 -11.969502 -0.893554 -0.333773 34.486811 -2.118300 0.963300 17.505600 0.292131 5.557461 -2.054470 -102.449538 -20.572307 82.502754 25.301335 -38.924458 -7.984619 -0.481046 1.444241 -50.096650 32.730076 64.153449 29.170100 -7.125000 0.000000 0.000000 171.069500 7.452000 7.794600 0.494936 -4.253584 -1.709008 94.720273 16.761071 57.100171 -26.760951 40.719369 -9.572333 -0.321089 -0.408347 -51.328811 -28.871856 -6.800796 3.671800 7.125000 0.000000 0.000000 -1.353900 -37.727000 -0.242400 
-11.113319 17.876039 4.711207 -27.432905 83.415253 -8.875044 -0.853908 -1.048566 -0.325826 -5.133866 -3.096768 -31.869799 0.347222 8.442945 23.802354 0.511227 -1.558071 2.657667 0.749100 -5.528400 -15.421900 5.294912 1.236110 0.575974 7.525649 5.904196 -34.850706 -2.638915 -9.611725 29.071265 0.540520 -4.039220 -1.633885 -0.162200 2.595000 -7.153000 -1.681031 1.459108 4.792488 4.089681 1.727843 9.315320 4.762717 0.926079 0.507614 0.550584 -2.635137 -11.942101 -0.882789 -0.366544 34.456304 -2.131500 0.962100 17.478100 0.294058 5.554269 -2.056291 -102.335709 -20.601471 82.653664 25.360166 -38.987438 -8.023672 -0.484250 1.444432 -50.224105 32.794420 64.126259 29.224600 -7.125000 0.000000 0.000000 171.095800 7.441000 7.773000 0.498306 -4.257379 -1.708433 94.793097 16.747204 57.088702 -26.780024 40.733794 -9.580872 -0.324063 -0.406417 -51.433845 -29.088506 -6.686623 3.646100 7.125000 0.000000 0.000000 -1.542700 -37.617800 -0.280400 
-11.112419 17.876639 4.712207 -26.997376 83.381738 -8.417819 -0.848215 -1.040672 -0.323028 -5.173960 -3.085538 -31.887518 0.345169 8.445124 23.801736 0.501199 -1.498439 2.579780 0.813800 -5.756500 -16.079400 5.301939 1.243882 0.571709 7.480772 5.934926 -34.889276 -2.643208 -9.612780 29.084737 0.546539 -4.071396 -1.588153 -0.207700 2.934600 -8.096800 -1.749914 1.473049 4.768058 4.079318 1.742574 9.309976 4.801543 0.933525 0.515185 0.548894 -2.634335 -11.931309 -0.865346 -0.370905 34.454412 -2.122800 0.961900 17.473700 0.293289 5.556526 -2.056795 -102.331859 -20.610292 82.638515 25.368623 -38.995208 -8.029070 -0.484157 1.443836 -50.249005 32.762469 64.111975 29.191100 -7.125000 0.000000 0.000000 171.092000 7.421200 7.779900 0.498343 -4.254027 -1.708174 94.770180 16.748061 57.140453 -26.805094 40.756918 -9.595952 -0.324127 -0.406723 -51.519225 -29.129285 -6.658164 3.637200 7.125000 0.000000 0.000000 -1.578200 -37.588900 -0.288000 
-11.111619 17.877039 4.711807 -26.913967 83.390829 -8.324883 -0.847650 -1.039561 -0.323287 -5.187803 -3.089974 -31.892774 0.342666 8.442492 23.791482 0.499694 -1.490071 2.572891 0.861700 -5.919600 -16.551200 5.302272 1.246609 0.570051 7.474330 5.912218 -34.914961 -2.646129 -9.616182 29.097658 0.551591 -4.101396 -1.571563 -0.231300 3.095400 -8.544500 -1.800283 1.465641 4.768535 4.111646 1.731068 9.299914 4.841729 0.928938 0.510121 0.531259 -2.631213 -11.939096 -0.860719 -0.357292 34.480482 -2.114600 0.966200 17.491100 0.291240 5.558935 -2.055878 -102.383896 -20.613228 82.600935 25.347566 -38.974491 -8.017990 -0.479144 1.444078 -50.245428 32.716711 63.972339 29.115400 -7.125000 0.000000 0.000000 171.127800 7.285600 7.771600 0.495940 -4.251999 -1.708272 94.722170 16.760913 57.168130 -26.801869 40.755264 -9.595056 -0.323357 -0.409153 -51.455633 -29.062710 -6.785098 3.694000 7.125000 0.000000 0.000000 -1.516100 -37.725500 -0.271600 
-11.112119 17.875939 4.708406 -27.084971 83.478213 -8.508682 -0.853900 -1.045304 -0.326367 -5.207643 -3.130448 -31.889647 0.339135 8.437731 23.778743 0.509127 -1.550245 2.657013 0.867300 -5.938100 -16.604900 5.297287 1.245742 0.571243 7.455197 5.848447 -34.900442 -2.645569 -9.619867 29.102054 0.549115 -4.089888 -1.623957 -0.196300 2.853200 -7.870300 -1.711100 1.437824 4.836230 4.077032 1.699328 9.279923 4.775591 0.911917 0.462711 0.505120 -2.661879 -11.971366 -0.807266 -0.393230 34.553293 -2.090200 0.959500 17.534500 0.293303 5.565311 -2.055792 -102.370892 -20.610103 82.640317 25.369533 -38.998898 -8.033676 -0.480246 1.445783 -50.373908 32.985556 63.883703 29.349500 -7.125000 0.000000 0.000000 171.225400 7.266900 7.687200 0.500139 -4.248573 -1.706679 94.736828 16.759098 57.131941 -26.810975 40.763964 -9.600788 -0.323992 -0.410081 -51.415966 -29.079432 -6.864793 3.739300 7.125000 0.000000 0.000000 -1.526900 -37.816900 -0.270100 
